<svg width="17" height="25" viewBox="0 0 17 25" fill="none" xmlns="http://www.w3.org/2000/svg">
<path d="M1.93891 13.6482L1.93869 13.648C1.65724 13.406 1.48032 13.0598 1.48032 12.6791C1.48032 12.2991 1.65632 11.9523 1.93892 11.71L1.93891 13.6482ZM1.93891 13.6482L13.4818 23.5616L13.4819 23.5617C14.0477 24.0473 14.9372 24.0466 15.5022 23.5591L15.5023 23.559C16.1113 23.0333 16.1092 22.1468 15.4994 21.6231L15.4994 21.6231L5.08526 12.6791L15.4998 3.73513L15.4998 3.73507C16.1095 3.21129 16.1116 2.32527 15.5027 1.79947L15.5026 1.79932C15.2124 1.54898 14.8446 1.43296 14.4908 1.43296C14.138 1.43296 13.7716 1.54821 13.4819 1.79681L13.4818 1.7969L1.93935 11.7096L1.93891 13.6482Z" fill="black" stroke="black"/>
</svg>
