<svg width="16" height="25" viewBox="0 0 16 25" fill="none" xmlns="http://www.w3.org/2000/svg">
<path d="M14.6341 11.4858L14.6338 11.4856L3.09099 1.57223L3.09088 1.57213C2.5251 1.0865 1.63551 1.08723 1.07057 1.57464L1.07045 1.57475C0.461451 2.10051 0.463562 2.98694 1.07337 3.51069L1.07338 3.5107L11.4875 12.4547L1.073 21.3987L1.07293 21.3987C0.463237 21.9225 0.461125 22.8085 1.07001 23.3343L1.07018 23.3345C1.36034 23.5848 1.72816 23.7008 2.08197 23.7008C2.4348 23.7008 2.8012 23.5856 3.09084 23.337L3.09094 23.3369L14.6334 13.4242C14.6334 13.4241 14.6335 13.4241 14.6335 13.4241C14.9163 13.1817 15.0924 12.8348 15.0924 12.4547C15.0924 12.074 14.9155 11.7278 14.6341 11.4858Z" fill="black" stroke="black"/>
</svg>
