<svg width="57" height="58" viewBox="0 0 57 58" fill="none" xmlns="http://www.w3.org/2000/svg">
<path d="M20.7015 58L19.5672 48.72C18.9527 48.4783 18.3738 48.1883 17.8302 47.85C17.2867 47.5117 16.755 47.1492 16.2351 46.7625L7.79851 50.3875L0 36.6125L7.30224 30.9575C7.25498 30.6192 7.23134 30.2929 7.23134 29.9787V28.0212C7.23134 27.7071 7.25498 27.3808 7.30224 27.0425L0 21.3875L7.79851 7.6125L16.2351 11.2375C16.755 10.8508 17.2985 10.4883 17.8657 10.15C18.4328 9.81167 19 9.52167 19.5672 9.28L20.7015 0H36.2985L37.4328 9.28C38.0473 9.52167 38.6262 9.81167 39.1698 10.15C39.7133 10.4883 40.245 10.8508 40.7649 11.2375L49.2015 7.6125L57 21.3875L49.6978 27.0425C49.745 27.3808 49.7687 27.7071 49.7687 28.0212V29.9787C49.7687 30.2929 49.7214 30.6192 49.6269 30.9575L56.9291 36.6125L49.1306 50.3875L40.7649 46.7625C40.245 47.1492 39.7015 47.5117 39.1343 47.85C38.5672 48.1883 38 48.4783 37.4328 48.72L36.2985 58H20.7015ZM28.6418 39.15C31.3831 39.15 33.7226 38.1592 35.6604 36.1775C37.5983 34.1958 38.5672 31.8033 38.5672 29C38.5672 26.1967 37.5983 23.8042 35.6604 21.8225C33.7226 19.8408 31.3831 18.85 28.6418 18.85C25.8532 18.85 23.5019 19.8408 21.5877 21.8225C19.6735 23.8042 18.7164 26.1967 18.7164 29C18.7164 31.8033 19.6735 34.1958 21.5877 36.1775C23.5019 38.1592 25.8532 39.15 28.6418 39.15ZM28.6418 33.35C27.4602 33.35 26.4558 32.9271 25.6287 32.0812C24.8016 31.2354 24.3881 30.2083 24.3881 29C24.3881 27.7917 24.8016 26.7646 25.6287 25.9187C26.4558 25.0729 27.4602 24.65 28.6418 24.65C29.8234 24.65 30.8277 25.0729 31.6549 25.9187C32.482 26.7646 32.8955 27.7917 32.8955 29C32.8955 30.2083 32.482 31.2354 31.6549 32.0812C30.8277 32.9271 29.8234 33.35 28.6418 33.35ZM25.6642 52.2H31.2649L32.2575 44.515C33.7226 44.1283 35.0815 43.5604 36.334 42.8112C37.5864 42.0621 38.7326 41.1558 39.7724 40.0925L46.791 43.065L49.556 38.135L43.459 33.4225C43.6953 32.7458 43.8607 32.0329 43.9552 31.2837C44.0498 30.5346 44.097 29.7733 44.097 29C44.097 28.2267 44.0498 27.4654 43.9552 26.7162C43.8607 25.9671 43.6953 25.2542 43.459 24.5775L49.556 19.865L46.791 14.935L39.7724 17.98C38.7326 16.8683 37.5864 15.9379 36.334 15.1887C35.0815 14.4396 33.7226 13.8717 32.2575 13.485L31.3358 5.8H25.7351L24.7425 13.485C23.2774 13.8717 21.9185 14.4396 20.666 15.1887C19.4136 15.9379 18.2674 16.8442 17.2276 17.9075L10.209 14.935L7.44403 19.865L13.541 24.505C13.3047 25.23 13.1393 25.955 13.0448 26.68C12.9502 27.405 12.903 28.1783 12.903 29C12.903 29.7733 12.9502 30.5225 13.0448 31.2475C13.1393 31.9725 13.3047 32.6975 13.541 33.4225L7.44403 38.135L10.209 43.065L17.2276 40.02C18.2674 41.1317 19.4136 42.0621 20.666 42.8112C21.9185 43.5604 23.2774 44.1283 24.7425 44.515L25.6642 52.2Z" fill="black"/>
</svg>
